# xmcd
#
# Track frame offsets: 
#        150
#        19062
#        40820
#        57710
#        70770
#        81435
#        98990
#        114895
#        131705
#        158357
#        175832
#
# Disc length: 2526 seconds
#
# Revision: 0
# Processed by: cddbd v1.5.2PL0 Copyright (c) Steve Scherf et al.
# Submitted via: ExactAudioCopy v0.99pb4
#
DISCID=8b09dc0b
DTITLE=Bukka White - The Sonet Blues Story
DYEAR=1963
DGENRE=Blues
TTITLE0=Aberdeen Mississippi Blues
TTITLE1=Baby Please Don't Go
TTITLE2=New Orleans Streamiline
TTITLE3=Parchman Farm Blues
TTITLE4=Poor Boy Long Ways From Home
TTITLE5=Remembrance of Charlie Patton
TTITLE6=Shake 'em on Down
TTITLE7=I Am the Heavenly Way
TTITLE8=The Atlanta Special
TTITLE9=Drunk Man Blues
TTITLE10=Army Blues
EXTD=
EXTT0=
EXTT1=
EXTT2=
EXTT3=
EXTT4=
EXTT5=
EXTT6=
EXTT7=
EXTT8=
EXTT9=
EXTT10=
PLAYORDER=
